<?xml version="1.0" encoding="UTF-8" standalone="no"?>
<!DOCTYPE svg PUBLIC "-//W3C//DTD SVG 1.1//EN" "http://www.w3.org/Graphics/SVG/1.1/DTD/svg11.dtd">
<svg width="100%" height="100%" viewBox="0 0 1311 832" version="1.1" xmlns="http://www.w3.org/2000/svg" xmlns:xlink="http://www.w3.org/1999/xlink" xml:space="preserve" style="fill-rule:evenodd;clip-rule:evenodd;stroke-linejoin:round;stroke-miterlimit:1.41421;">
	<g>
		<rect x="0" y="792" width="272" height="6" style="fill:#ffffff;"/>
		<rect x="1038" y="792" width="272" height="6" style="fill:#ffffff;"/>
		<path d="M401.384,756.15l0,2.149c-2.988,0.532 -5.157,1.484 -6.508,2.856c-1.35,1.372 -2.026,3.327 -2.026,5.865c-0.019,0.942 0.053,2.005 0.217,3.19l6.652,45.924c0.493,3.356 1.63,5.935 3.412,7.735c1.781,1.801 4.391,3.029 7.831,3.683l0,2.149l-36.346,0l0,-2.149c3.029,-0.777 5.198,-1.985 6.508,-3.622c1.31,-1.637 1.965,-3.991 1.965,-7.06c0,-1.515 -0.144,-3.357 -0.43,-5.526l-6.017,-41.994l-24.206,60.351l-2.624,0l-23.882,-60.351l-6.384,43.222c-0.246,1.719 -0.369,3.275 -0.369,4.666c0,6.426 3.008,9.864 9.024,10.314l0,2.149l-26.645,0l0,-2.149c3.888,-0.163 6.815,-1.463 8.779,-3.898c1.965,-2.435 3.395,-6.539 4.29,-12.311l7.262,-48.017c-3.113,-3.229 -6.677,-4.904 -10.692,-5.027l0,-2.149l26.611,0l19.192,48.497l19.451,-48.497l24.935,0Z" style="fill:#ffffff;fill-rule:nonzero;"/>
		<path d="M465.849,781.506l2.394,0l0,22.778l-2.394,0c-0.86,-6.263 -4.257,-9.394 -10.192,-9.394l-12.954,0l0,21.611c0,3.316 0.756,5.649 2.267,6.999c1.511,1.351 4.105,2.026 7.781,2.026l4.289,0c7.189,0 12.335,-4.563 15.44,-13.691l2.148,0l-1.35,17.866l-55.992,0l0,-2.149c3.699,-0.777 6.159,-1.893 7.379,-3.346c1.22,-1.453 1.83,-4.267 1.83,-8.441l0,-47.274c0,-3.439 -0.63,-5.823 -1.891,-7.153c-1.261,-1.33 -3.7,-2.343 -7.318,-3.039l0,-2.149l55.132,0l0,16.331l-2.149,0c-1.228,-4.789 -2.752,-8.012 -4.574,-9.67c-1.821,-1.657 -4.737,-2.486 -8.748,-2.486l-14.244,0l0,30.39l12.954,0c2.947,0 5.198,-0.7 6.754,-2.101c1.555,-1.401 2.701,-3.77 3.438,-7.108Z" style="fill:#ffffff;fill-rule:nonzero;"/>
		<path d="M579.368,756.15l0,2.149c-2.988,0.532 -5.157,1.484 -6.508,2.856c-1.35,1.372 -2.026,3.327 -2.026,5.865c-0.019,0.942 0.053,2.005 0.217,3.19l6.652,45.924c0.493,3.356 1.63,5.935 3.412,7.735c1.781,1.801 4.391,3.029 7.831,3.683l0,2.149l-36.346,0l0,-2.149c3.029,-0.777 5.198,-1.985 6.508,-3.622c1.31,-1.637 1.965,-3.991 1.965,-7.06c0,-1.515 -0.144,-3.357 -0.43,-5.526l-6.017,-41.994l-24.206,60.351l-2.624,0l-23.882,-60.351l-6.384,43.222c-0.246,1.719 -0.369,3.275 -0.369,4.666c0,6.426 3.008,9.864 9.024,10.314l0,2.149l-26.645,0l0,-2.149c3.888,-0.163 6.815,-1.463 8.78,-3.898c1.964,-2.435 3.394,-6.539 4.289,-12.311l7.262,-48.017c-3.113,-3.229 -6.677,-4.904 -10.692,-5.027l0,-2.149l26.611,0l19.192,48.497l19.451,-48.497l24.935,0Z" style="fill:#ffffff;fill-rule:nonzero;"/>
		<path d="M676.434,792.987c0,11.256 -3.766,20.506 -11.297,27.751c-7.531,7.244 -17.15,10.867 -28.856,10.867c-11.665,0 -21.242,-3.623 -28.732,-10.867c-7.491,-7.245 -11.236,-16.495 -11.236,-27.751c0,-11.256 3.756,-20.526 11.266,-27.812c7.511,-7.285 17.078,-10.928 28.702,-10.928c11.706,0 21.325,3.643 28.856,10.928c7.531,7.286 11.297,16.556 11.297,27.812Zm-17.621,0.491c0,-11.419 -1.913,-20.117 -5.74,-26.093c-3.827,-5.975 -9.424,-8.963 -16.792,-8.963c-7.285,0 -12.831,2.988 -16.638,8.963c-3.806,5.976 -5.709,14.715 -5.709,26.216c0,10.683 1.923,18.992 5.771,24.926c3.847,5.935 9.373,8.903 16.576,8.903c7.081,0 12.607,-2.947 16.577,-8.841c3.97,-5.894 5.955,-14.264 5.955,-25.111Z" style="fill:#ffffff;fill-rule:nonzero;"/>
		<path d="M684.968,829.701l0,-2.149c6.221,-0.491 9.332,-3.622 9.332,-9.393l0,-49.791c0,-3.397 -0.645,-5.751 -1.934,-7.061c-1.29,-1.309 -3.756,-2.312 -7.398,-3.008l0,-2.149l34.995,0c9.168,0 16.218,1.617 21.15,4.85c4.932,3.234 7.398,7.777 7.398,13.63c0,4.216 -1.282,7.838 -3.847,10.867c-2.565,3.029 -6.242,5.239 -11.03,6.631l0,0.245c1.719,0.41 3.581,1.834 5.587,4.273c2.005,2.438 4.915,7.217 8.728,14.335c3.731,6.914 6.446,11.292 8.145,13.133c1.698,1.842 4.021,2.988 6.968,3.438l0,2.149l-21.211,0c-2.779,-3.288 -6.345,-9.246 -10.699,-17.874c-2.998,-5.929 -5.224,-9.876 -6.677,-11.841c-1.453,-1.965 -2.967,-3.346 -4.543,-4.144c-1.576,-0.798 -4.717,-1.197 -9.424,-1.197l0,22.593c0,3.234 0.716,5.638 2.149,7.214c1.432,1.576 3.868,2.609 7.306,3.1l0,2.149l-34.995,0Zm30.574,-69.376l-5.034,0l0,30.145c1.269,0.082 2.456,0.123 3.561,0.123c5.853,0 10.12,-1.259 12.801,-3.776c2.681,-2.517 4.021,-6.498 4.021,-11.941c0,-9.701 -5.116,-14.551 -15.349,-14.551Z" style="fill:#ffffff;fill-rule:nonzero;"/>
		<path d="M804.319,756.15l0,2.149c-3.618,0.819 -6.058,1.913 -7.318,3.285c-1.261,1.371 -1.891,4.205 -1.891,8.503l0,47.151c0,3.315 0.59,5.628 1.769,6.938c1.179,1.31 3.659,2.435 7.44,3.376l0,2.149l-34.749,0l0,-2.149c2.619,-0.654 4.574,-1.371 5.863,-2.148c1.289,-0.778 2.19,-1.76 2.701,-2.947c0.512,-1.187 0.768,-3.459 0.768,-6.815l0,-47.029c0,-3.315 -0.604,-5.638 -1.811,-6.968c-1.208,-1.33 -3.715,-2.446 -7.521,-3.346l0,-2.149l34.749,0Z" style="fill:#ffffff;fill-rule:nonzero;"/>
		<path d="M856.444,829.701l0,-2.149c3.017,-0.573 5.148,-1.279 6.392,-2.118c1.243,-0.839 1.865,-2.015 1.865,-3.53c0,-1.228 -0.472,-3.111 -1.416,-5.648l-4.252,-11.297l-26.25,0l-3.633,9.758c-0.928,2.496 -1.392,4.501 -1.392,6.016c0,3.236 2.461,5.509 7.382,6.819l0,2.149l-23.76,0l0,-2.149c2.865,-0.491 5.362,-1.985 7.49,-4.481c2.128,-2.497 4.238,-6.57 6.329,-12.218l21.151,-56.606l10.045,0l22.368,58.876c2.048,5.239 4.057,8.892 6.027,10.96c1.969,2.067 4.533,3.224 7.693,3.469l0,2.149l-36.039,0Zm-21.303,-30.022l21.911,0l-11.199,-29.838l-10.712,29.838Z" style="fill:#ffffff;fill-rule:nonzero;"/>
		<path d="M932.942,756.15l0,2.149c-3.929,0.982 -6.467,2.108 -7.613,3.377c-1.146,1.268 -1.719,3.397 -1.719,6.385l0,49.545c0,3.07 0.808,5.158 2.425,6.263c1.617,1.105 4.676,1.657 9.179,1.657c4.706,0 8.359,-1.033 10.959,-3.1c2.599,-2.067 5.31,-6.006 8.134,-11.819l2.149,0l-2.149,19.094l-56.115,0l0,-2.149c3.903,-0.982 6.414,-2.148 7.532,-3.499c1.119,-1.351 1.678,-4.154 1.678,-8.411l0,-47.029c0,-3.315 -0.6,-5.638 -1.8,-6.968c-1.199,-1.33 -3.669,-2.446 -7.41,-3.346l0,-2.149l34.75,0Z" style="fill:#ffffff;fill-rule:nonzero;"/>
		<path d="M1005.94,754.247l0,19.401l-2.149,0c-1.43,-4.298 -3.891,-7.91 -7.383,-10.837c-3.493,-2.926 -7.098,-4.389 -10.815,-4.389c-3.349,0 -6.198,0.962 -8.547,2.885c-2.349,1.924 -3.523,4.277 -3.523,7.061c0,1.35 0.307,2.691 0.921,4.021c0.614,1.33 1.504,2.568 2.671,3.714c1.166,1.147 4.925,3.698 11.277,7.655c6.475,3.956 10.652,6.713 12.531,8.27c1.879,1.557 3.677,3.544 5.393,5.961c2.614,3.728 3.921,7.805 3.921,12.23c0,6.555 -2.302,11.757 -6.907,15.609c-4.604,3.851 -10.181,5.777 -16.73,5.777c-3.52,0 -7.715,-0.635 -12.586,-1.904c-2.578,-0.655 -4.379,-0.982 -5.403,-0.982c-1.719,0 -2.967,0.798 -3.745,2.394l-2.149,0l0,-22.163l2.149,0c1.105,5.73 3.397,10.243 6.877,13.537c3.479,3.295 7.756,4.943 12.831,4.943c3.929,0 7.173,-0.983 9.731,-2.947c2.558,-1.965 3.837,-4.462 3.837,-7.49c0,-2.456 -0.818,-4.779 -2.455,-6.969c-1.638,-2.19 -6.022,-5.405 -13.153,-9.646c-6.557,-3.916 -10.897,-6.939 -13.019,-9.069c-2.123,-2.131 -3.725,-4.518 -4.806,-7.16c-1.082,-2.643 -1.623,-5.44 -1.623,-8.39c0,-6.31 2.156,-11.473 6.467,-15.489c4.312,-4.015 9.86,-6.023 16.644,-6.023c2.084,0 4.598,0.348 7.54,1.044c2.943,0.654 5.027,0.982 6.253,0.982c1.185,0 2.452,-0.675 3.801,-2.026l2.149,0Z" style="fill:#ffffff;fill-rule:nonzero;"/>
		<path d="M304.452,516.766l0,5.599c-3.833,0.302 -7.062,1.362 -9.684,3.177c-2.623,1.816 -4.943,4.59 -6.961,8.323c-0.605,1.21 -3.783,9.028 -9.533,23.454l-64.31,169.325l-5.902,0l-50.843,-132.252l-55.987,132.252l-5.599,0l-67.488,-167.509c-6.86,-16.847 -11.651,-27.036 -14.375,-30.566c-2.724,-3.531 -7.314,-5.599 -13.77,-6.204l0,-5.599l88.975,0l0,5.599c-7.162,0.201 -11.929,1.286 -14.3,3.253c-2.37,1.967 -3.556,4.413 -3.556,7.339c0,3.833 2.472,11.954 7.415,24.362l40.251,99.567l32.23,-77.777l-8.473,-21.79c-4.641,-11.904 -8.222,-19.848 -10.744,-23.832c-2.522,-3.985 -5.422,-6.835 -8.701,-8.55c-3.278,-1.715 -8.095,-2.572 -14.451,-2.572l0,-5.599l99.416,0l0,5.599c-6.96,0.101 -11.954,0.655 -14.98,1.664c-2.119,0.706 -3.783,1.892 -4.994,3.556c-1.21,1.665 -1.815,3.556 -1.815,5.675c0,2.32 2.269,9.432 6.809,21.335l37.375,97.147l33.442,-87.916c3.53,-9.079 5.699,-15.283 6.506,-18.612c0.807,-3.329 1.211,-6.406 1.211,-9.231c0,-4.136 -1.412,-7.389 -4.237,-9.76c-2.825,-2.37 -8.222,-3.657 -16.191,-3.858l0,-5.599l53.264,0Z" style="fill:#ffffff;fill-rule:nonzero;"/>
		<path d="M401.749,663.544l-72.481,0l-8.625,19.974c-2.825,6.658 -4.237,12.156 -4.237,16.494c0,5.75 2.32,9.987 6.961,12.711c2.723,1.614 9.432,2.824 20.125,3.631l0,5.599l-68.244,0l0,-5.599c7.364,-1.109 13.416,-4.161 18.158,-9.154c4.741,-4.994 10.592,-15.309 17.553,-30.945l73.389,-163.726l2.875,0l73.994,168.266c7.062,15.939 12.862,25.976 17.402,30.112c3.43,3.127 8.272,4.943 14.527,5.447l0,5.599l-99.265,0l0,-5.599l4.085,0c7.97,0 13.569,-1.109 16.797,-3.329c2.219,-1.614 3.329,-3.934 3.329,-6.96c0,-1.816 -0.303,-3.682 -0.908,-5.599c-0.202,-0.908 -1.715,-4.691 -4.54,-11.349l-10.895,-25.573Zm-5.144,-11.197l-30.567,-70.666l-31.474,70.666l62.041,0Z" style="fill:#ffffff;fill-rule:nonzero;"/>
		<path d="M669.128,516.766l0,55.534l-5.447,0c-3.228,-12.812 -6.809,-22.017 -10.744,-27.616c-3.934,-5.599 -9.331,-10.063 -16.191,-13.392c-3.833,-1.815 -10.541,-2.723 -20.125,-2.723l-15.283,0l0,158.278c0,10.492 0.58,17.049 1.74,19.672c1.16,2.623 3.43,4.918 6.809,6.885c3.38,1.967 7.995,2.95 13.846,2.95l6.809,0l0,5.599l-107.435,0l0,-5.599l6.809,0c5.952,0 10.743,-1.059 14.375,-3.177c2.623,-1.413 4.691,-3.834 6.204,-7.264c1.11,-2.421 1.665,-8.776 1.665,-19.066l0,-158.278l-14.83,0c-13.82,0 -23.857,2.925 -30.112,8.776c-8.776,8.171 -14.325,19.823 -16.645,34.955l-5.75,0l0,-55.534l184.305,0Z" style="fill:#ffffff;fill-rule:nonzero;"/>
		<path d="M825.894,512.075l1.664,68.396l-6.204,0c-2.925,-17.15 -10.113,-30.945 -21.562,-41.386c-11.45,-10.441 -23.833,-15.661 -37.149,-15.661c-10.29,0 -18.436,2.749 -24.438,8.247c-6.002,5.498 -9.003,11.828 -9.003,18.99c0,4.54 1.059,8.575 3.177,12.106c2.926,4.741 7.617,9.432 14.073,14.072c4.741,3.329 15.687,9.231 32.836,17.704c24.009,11.803 40.2,22.95 48.573,33.442c8.272,10.491 12.408,22.496 12.408,36.013c0,17.15 -6.683,31.903 -20.05,44.261c-13.366,12.358 -30.339,18.536 -50.918,18.536c-6.456,0 -12.559,-0.655 -18.31,-1.967c-5.75,-1.311 -12.962,-3.783 -21.638,-7.414c-4.842,-2.018 -8.827,-3.027 -11.954,-3.027c-2.623,0 -5.397,1.009 -8.323,3.027c-2.925,2.017 -5.296,5.094 -7.112,9.23l-5.598,0l0,-77.475l5.598,0c4.439,21.79 12.989,38.41 25.649,49.859c12.66,11.45 26.304,17.175 40.931,17.175c11.299,0 20.302,-3.077 27.011,-9.23c6.708,-6.154 10.062,-13.316 10.062,-21.487c0,-4.843 -1.286,-9.534 -3.858,-14.073c-2.573,-4.54 -6.482,-8.852 -11.727,-12.938c-5.246,-4.085 -14.527,-9.407 -27.843,-15.964c-18.663,-9.18 -32.079,-16.998 -40.251,-23.454c-8.171,-6.456 -14.45,-13.669 -18.839,-21.639c-4.388,-7.969 -6.582,-16.745 -6.582,-26.329c0,-16.342 6.002,-30.264 18.007,-41.764c12.004,-11.5 27.136,-17.25 45.395,-17.25c6.658,0 13.114,0.807 19.369,2.421c4.741,1.211 10.517,3.455 17.326,6.734c6.809,3.278 11.576,4.918 14.299,4.918c2.623,0 4.691,-0.807 6.204,-2.421c1.514,-1.615 2.926,-5.498 4.237,-11.652l4.54,0Z" style="fill:#ffffff;fill-rule:nonzero;"/>
		<path d="M972.37,513.891c32.684,-1.211 59.241,8.322 79.669,28.599c20.428,20.277 30.642,45.648 30.642,76.113c0,26.027 -7.617,48.926 -22.849,68.698c-20.176,26.229 -48.674,39.343 -85.495,39.343c-36.922,0 -65.47,-12.509 -85.646,-37.527c-15.939,-19.772 -23.908,-43.226 -23.908,-70.363c0,-30.465 10.365,-55.861 31.096,-76.188c20.73,-20.327 46.227,-29.886 76.491,-28.675Zm1.816,9.684c-18.764,0 -33.038,9.584 -42.823,28.751c-7.97,15.737 -11.955,38.334 -11.955,67.79c0,35.005 6.154,60.88 18.461,77.626c8.575,11.702 20.58,17.553 36.014,17.553c10.39,0 19.066,-2.522 26.027,-7.566c8.877,-6.456 15.787,-16.771 20.73,-30.944c4.943,-14.174 7.415,-32.66 7.415,-55.458c0,-27.137 -2.522,-47.439 -7.566,-60.906c-5.044,-13.467 -11.475,-22.975 -19.293,-28.523c-7.818,-5.549 -16.822,-8.323 -27.01,-8.323Z" style="fill:#ffffff;fill-rule:nonzero;"/>
		<path d="M1170.9,516.766l101.232,127.258l0,-88.218c0,-12.307 -1.766,-20.63 -5.296,-24.968c-4.842,-5.85 -12.963,-8.675 -24.362,-8.473l0,-5.599l67.79,0l0,5.599c-8.676,1.109 -14.501,2.547 -17.477,4.312c-2.976,1.766 -5.296,4.641 -6.961,8.625c-1.664,3.985 -2.497,10.82 -2.497,20.504l0,170.838l-5.144,0l-138.759,-170.838l0,130.436c0,11.803 2.698,19.772 8.095,23.908c5.397,4.136 11.576,6.204 18.537,6.204l4.842,0l0,5.599l-72.784,0l0,-5.599c11.299,-0.1 19.167,-2.421 23.606,-6.96c4.438,-4.54 6.658,-12.257 6.658,-23.152l0,-144.811l-4.389,-5.448c-4.337,-5.447 -8.171,-9.028 -11.5,-10.743c-3.329,-1.715 -8.12,-2.674 -14.375,-2.875l0,-5.599l72.784,0Z" style="fill:#ffffff;fill-rule:nonzero;"/>
		<path d="M494.537,0.788l322.628,0l-103.478,179.229l-43.302,-75.001l16.874,-29.227l-63.029,0l133.737,231.638l177.804,-231.638l12.5,0l-205.616,356.139l-248.118,-431.14Zm-130.006,75.001l204.666,354.491l71.869,-124.48l-43.302,-75.002l-43.448,75.254l-176.785,-230.263l-13,0Z" style="fill:#ffffff;"/>
	</g>
</svg>
